<?xml version="1.0" encoding="utf-8"?>
<!-- Generator: Adobe Illustrator 16.0.0, SVG Export Plug-In . SVG Version: 6.00 Build 0)  -->
<!DOCTYPE svg PUBLIC "-//W3C//DTD SVG 1.1//EN" "http://www.w3.org/Graphics/SVG/1.1/DTD/svg11.dtd">
<svg version="1.1" id="Calque_1" xmlns="http://www.w3.org/2000/svg" xmlns:xlink="http://www.w3.org/1999/xlink" x="0px" y="0px"
	 width="610px" height="630px" viewBox="0 0 610 630" enable-background="new 0 0 610 630" xml:space="preserve">
<path fill="#DFDFE3" d="M609.627,630L292.853,217.013c-1.252-1.648-2.245-3.002-2.204-3.007c0.04-0.006,1.425-1.033,3.074-2.28
	l84.83-64.136c1.65-1.248,4.016-0.916,5.257,0.742l18.417,24.562c1.241,1.657,2.736,1.387,3.32-0.598l34.609-117.688
	c0.584-1.986-0.628-3.65-2.699-3.698l-125.303-2.936c-2.068-0.047-2.76,1.277-1.532,2.943l17.714,24.106
	c1.224,1.667,0.9,4.084-0.719,5.37l-174.91,138.749c-1.62,1.286-1.891,3.662-0.598,5.277l21.237,26.569
	c1.293,1.617,0.657,2.938-1.41,2.938H46.597c-1.848,0-3.035-1.306-2.886-3.006c0.017-0.205,0.044-0.412,0.101-0.625l31.833-118.008
	c0.54-1.996,1.995-2.275,3.236-0.621l19.879,26.548c1.241,1.655,3.592,1.974,5.23,0.707l87.577-67.865
	c1.635-1.267,1.961-3.659,0.72-5.315l-54.268-72.508L128.159,0H10.303H0l4.583,630H609.627z"/>
</svg>
